<svg xmlns="http://www.w3.org/2000/svg" width="512" height="512" viewBox="0 0 512 512">
  <defs>
    <linearGradient id="bg" x1="0%" y1="0%" x2="100%" y2="100%">
      <stop offset="0%" stop-color="#6366f1"/>
      <stop offset="50%" stop-color="#8b5cf6"/>
      <stop offset="100%" stop-color="#a78bfa"/>
    </linearGradient>
  </defs>
  <rect width="512" height="512" rx="96" fill="url(#bg)"/>
  <g stroke="white" stroke-width="14" fill="none" stroke-linecap="round" stroke-linejoin="round" transform="translate(106,106)">
    <rect x="8" y="8" width="108" height="108" rx="16"/>
    <rect x="184" y="8" width="108" height="108" rx="16"/>
    <rect x="8" y="184" width="108" height="108" rx="16"/>
    <rect x="38" y="38" width="48" height="48" rx="6"/>
    <rect x="214" y="38" width="48" height="48" rx="6"/>
    <rect x="38" y="214" width="48" height="48" rx="6"/>
    <rect x="184" y="184" width="44" height="44" rx="6"/>
    <line x1="292" y1="184" x2="292" y2="292"/>
    <line x1="184" y1="292" x2="292" y2="292"/>
    <line x1="248" y1="184" x2="248" y2="248"/>
    <line x1="184" y1="248" x2="248" y2="248"/>
  </g>
</svg>
